<?xml version="1.0" encoding="iso-8859-1"?>
<!-- Generator: Adobe Illustrator 19.1.0, SVG Export Plug-In . SVG Version: 6.00 Build 0)  -->
<svg version="1.1" id="Capa_1" xmlns="http://www.w3.org/2000/svg" xmlns:xlink="http://www.w3.org/1999/xlink" x="0px" y="0px"
	 viewBox="0 0 162.589 162.589" style="enable-background:new 0 0 162.589 162.589;" xml:space="preserve">
<g>
	<path d="M54.235,59.984"/>
	<path d="M54.808,81.731c-0.776,0-1.565-0.18-2.316-0.555c-0.189-0.093-0.373-0.2-0.552-0.316c-0.694-0.452-0.89-1.381-0.438-2.076
		c0.453-0.694,1.382-0.891,2.076-0.438c0.079,0.052,0.161,0.1,0.248,0.143c1.201,0.599,2.306-0.018,2.828-0.842
		c0.072-0.114,0.133-0.479-0.007-0.982c-0.187-0.669-0.627-1.247-1.151-1.507c-0.938-0.47-1.651-0.619-2.007-0.423
		c-0.726,0.4-1.637,0.135-2.038-0.59c-0.399-0.726-0.135-1.638,0.59-2.038c1.933-1.064,4.086,0.013,4.794,0.366
		c1.277,0.637,2.288,1.903,2.701,3.387c0.35,1.257,0.222,2.494-0.349,3.393C58.177,80.85,56.526,81.731,54.808,81.731z"/>
	<path d="M60.308,83.18c-0.683,0-1.3-0.47-1.46-1.164c-0.863-3.742-2.367-5.951-2.382-5.973c-0.469-0.68-0.301-1.614,0.378-2.085
		c0.679-0.472,1.61-0.307,2.083,0.37c0.075,0.107,1.841,2.666,2.844,7.015c0.187,0.807-0.317,1.612-1.125,1.798
		C60.533,83.167,60.42,83.18,60.308,83.18z"/>
	<path d="M79.691,136.458c-6.134,0-12.964-8.947-13.802-10.076c-0.493-0.666-0.354-1.604,0.312-2.098
		c0.664-0.495,1.604-0.355,2.098,0.31c2.732,3.679,7.987,8.968,11.412,8.868v-4.546c0-0.829,0.671-1.5,1.5-1.5s1.5,0.671,1.5,1.5
		v5.769c0,0.622-0.384,1.179-0.964,1.401C81.077,136.343,80.389,136.458,79.691,136.458z"/>
	<path d="M78.361,126.989c-0.34,0-0.683-0.115-0.964-0.352l-3.678-3.093c-0.634-0.533-0.716-1.479-0.183-2.113
		c0.532-0.634,1.479-0.717,2.113-0.183l3.678,3.093c0.634,0.533,0.716,1.479,0.183,2.113
		C79.213,126.807,78.789,126.989,78.361,126.989z"/>
	<path d="M70.38,130.375c-0.739,0-1.382-0.545-1.484-1.298c-0.047-0.351-1.111-8.66,3.295-13.898
		c2.151-2.557,5.191-3.926,9.036-4.071c0.85-0.014,1.524,0.615,1.556,1.442c0.031,0.828-0.615,1.524-1.442,1.556
		c-2.959,0.111-5.263,1.12-6.846,2.996c-3.553,4.211-2.635,11.503-2.625,11.576c0.108,0.82-0.468,1.575-1.288,1.685
		C70.514,130.371,70.447,130.375,70.38,130.375z"/>
	<path d="M92.242,130.376c-0.067,0-0.135-0.004-0.203-0.014c-0.82-0.111-1.396-0.865-1.286-1.685l0,0
		c0.01-0.073,0.927-7.365-2.626-11.576c-1.583-1.876-3.886-2.885-6.845-2.996c-0.828-0.031-1.474-0.728-1.442-1.556
		c0.031-0.828,0.723-1.455,1.556-1.442c3.844,0.145,6.884,1.515,9.035,4.071c4.407,5.238,3.344,13.547,3.296,13.898
		C93.625,129.83,92.981,130.376,92.242,130.376z"/>
	<path d="M80.859,142.738c-1.459,0-2.451-0.46-2.738-0.612c-5.75-2.757-8.996-8.026-9.131-8.25
		c-5.06-7.24-4.141-12.469-3.795-14.437c0.02-0.111,0.038-0.208,0.051-0.289c-0.502-1.548-4.487-10.034-8.111-17.502
		c-6.896-14.54-8.397-29.2-4.235-41.292c0.234-0.68,0.92-1.098,1.629-0.997c0.08,0.01,8.29,1.074,14.22-4.25
		c0.462-0.516,4.854-5.568,5.386-11.368c0.059-0.647,0.528-1.182,1.161-1.326c0.117-0.026,2.904-0.652,5.907-0.652
		c0.829,0,1.5,0.671,1.5,1.5s-0.671,1.5-1.5,1.5c-1.633,0-3.23,0.216-4.224,0.384c-1.066,6.602-5.856,11.817-6.071,12.048
		c-0.029,0.031-0.059,0.061-0.091,0.089c-5.564,5.042-12.597,5.292-15.441,5.153c-3.446,11.134-1.876,24.543,4.464,37.913
		c8.422,17.353,8.422,18.297,8.422,18.701c0,0.269-0.047,0.537-0.112,0.907c-0.287,1.634-1.05,5.977,3.353,12.281
		c0.08,0.125,3.003,4.838,7.945,7.196c0.033,0.016,0.066,0.033,0.098,0.052c0.024,0.011,1.221,0.613,3.032-0.095
		c0.772-0.301,1.642,0.08,1.943,0.851c0.302,0.771-0.079,1.642-0.851,1.943C82.616,142.597,81.666,142.738,80.859,142.738z"/>
	<path d="M76.612,46.444"/>
	<path d="M37.019,104.094c-0.027,0-0.054,0-0.081-0.002C15.88,102.982,0,85.149,0,62.61c0-23.578,17.52-42.76,39.055-42.76
		c16.405,0,31.298,9.337,37.941,23.788c0.346,0.752,0.017,1.644-0.736,1.989c-0.752,0.347-1.644,0.017-1.989-0.736
		c-6.155-13.389-19.978-22.041-35.215-22.041C19.174,22.851,3,40.687,3,62.61c0,20.916,14.658,37.461,34.097,38.485
		c0.827,0.044,1.462,0.75,1.419,1.577C38.473,103.473,37.811,104.094,37.019,104.094z"/>
	<path d="M37.828,104.147c-0.174,0-0.35-0.03-0.522-0.094c-24.519-9.114-24.979-35.876-24.98-36.146
		c-0.267-15.491,7.706-25.562,20.805-26.266c11.221-0.603,20.562,7.132,22.704,18.81c0.149,0.815-0.39,1.597-1.205,1.746
		c-0.811,0.146-1.597-0.39-1.746-1.205c-1.891-10.31-9.777-16.894-19.591-16.354c-11.49,0.617-18.206,9.303-17.966,23.234
		c0.009,1.03,0.475,24.987,23.025,33.369c0.777,0.289,1.172,1.152,0.884,1.929C39.01,103.774,38.437,104.147,37.828,104.147z"/>
	<path d="M47.921,74.707c-7.203,0-21.364-1.422-25.378-12.193c-0.216-0.581-0.053-1.234,0.41-1.646
		c2.383-2.117,8.727-4.959,15.674-0.562c0.089,0.053,2.947,1.779,5.457,4.563c0.774,0.856,1.47,1.859,2.144,2.83
		c1.303,1.878,2.651,3.82,4.079,3.836c0.168,0.002,0.329,0.031,0.479,0.084c0.66-0.036,1.046-0.073,1.074-0.076
		c0.831-0.085,1.561,0.516,1.645,1.339c0.084,0.824-0.516,1.561-1.339,1.645C51.92,74.551,50.299,74.707,47.921,74.707z
		 M25.8,62.505c3.425,7.046,13.043,8.785,19.586,9.117c-0.579-0.709-1.111-1.477-1.623-2.213c-0.648-0.933-1.26-1.815-1.906-2.529
		c-2.213-2.456-4.777-4.004-4.803-4.019C31.838,59.559,27.555,61.421,25.8,62.505z"/>
	<path d="M31.392,62.186"/>
	<path d="M23.892,63.24c-0.114,0-0.229-0.013-0.345-0.041c-0.806-0.189-1.306-0.997-1.116-1.804c0.023-0.099,0.595-2.455,2.61-4.746
		c1.837-2.088,5.274-4.538,11.195-4.446c0.876-0.055,6.13-0.081,13.53,5.875c0.054,0.045,2.003,1.659,4.121,1.023
		c0.794-0.241,1.629,0.212,1.868,1.005c0.238,0.793-0.212,1.63-1.005,1.868c-3.72,1.116-6.777-1.482-6.905-1.594
		c-6.836-5.501-11.381-5.188-11.424-5.183c-0.052,0.004-0.121,0.012-0.176,0.006c-9.119-0.175-10.875,6.809-10.893,6.879
		C25.188,62.774,24.572,63.24,23.892,63.24z"/>
	<path d="M1.982,70.09c-0.822,0-1.493-0.663-1.5-1.487C0.229,38.529,23.219,33.601,23.451,33.554
		c6.291-1.509,12.082-0.679,17.149,2.479c11.251,7.01,14.946,22.947,15.098,23.622c0.182,0.808-0.326,1.61-1.133,1.792
		c-0.808,0.18-1.61-0.325-1.793-1.133c-0.035-0.153-3.585-15.405-13.768-21.741c-4.359-2.713-9.376-3.415-14.911-2.09
		C23.191,36.669,3.25,41.056,3.482,68.578c0.007,0.829-0.659,1.506-1.487,1.513C1.991,70.09,1.986,70.09,1.982,70.09z"/>
	<path d="M50.3,50.048c-0.163,0-0.329-0.027-0.492-0.083c-0.781-0.272-1.196-1.123-0.926-1.905
		c0.05-0.146,5.229-14.602,20.943-13.548c0.827,0.055,1.452,0.77,1.397,1.596c-0.055,0.827-0.777,1.453-1.596,1.397
		c-13.381-0.892-17.731,11.03-17.91,11.537C51.501,49.661,50.92,50.048,50.3,50.048z"/>
	<path d="M41.941,39.723c-0.123,0-0.248-0.015-0.372-0.047c-0.803-0.205-1.287-1.021-1.082-1.824
		c0.032-0.126,3.375-12.627,16.609-13.421c0.821-0.06,1.538,0.58,1.587,1.407c0.05,0.827-0.581,1.538-1.407,1.587
		C46.202,28.089,43.42,38.488,43.394,38.593C43.221,39.271,42.611,39.723,41.941,39.723z"/>
	<path d="M36.53,44.64c-0.396,0-0.79-0.155-1.085-0.464c-4.215-4.416-4.462-9.372-4.471-9.581
		c-0.236-4.273,1.585-12.85,10.18-14.564c0.813-0.161,1.603,0.365,1.765,1.178s-0.365,1.603-1.178,1.765
		c-8.177,1.631-7.791,11.081-7.77,11.482c0.002,0.052,0.241,4.085,3.644,7.65c0.572,0.599,0.55,1.549-0.049,2.121
		C37.275,44.502,36.903,44.64,36.53,44.64z"/>
	<path d="M28.415,44.886c-0.225,0-0.452-0.051-0.667-0.157c-6.585-3.272-8.153-8.706-8.217-8.935
		c-0.06-0.193-1.749-5.798,0.881-10.359c0.414-0.717,1.332-0.963,2.049-0.55c0.717,0.414,0.964,1.331,0.55,2.049
		c-1.983,3.438-0.615,7.971-0.601,8.016c0.062,0.214,1.339,4.442,6.673,7.092c0.742,0.369,1.044,1.269,0.676,2.011
		C29.497,44.581,28.966,44.886,28.415,44.886z"/>
	<path d="M19.935,49.62c-0.077,0-0.155-0.006-0.234-0.018c-5.811-0.911-8.85-3.841-10.376-6.139
		c-1.675-2.522-1.938-4.863-1.948-4.961c-0.087-0.824,0.511-1.562,1.335-1.648c0.813-0.095,1.557,0.506,1.647,1.327
		c0.036,0.302,0.939,7.068,9.807,8.458c0.818,0.128,1.378,0.896,1.25,1.714C21.299,49.092,20.661,49.62,19.935,49.62z"/>
	<path d="M11.451,57.401c-6.417,0-8.651-3.318-8.761-3.488c-0.45-0.696-0.251-1.625,0.444-2.074c0.688-0.446,1.604-0.256,2.06,0.422
		c0.127,0.177,2.492,3.278,10.26,1.704c0.815-0.167,1.604,0.361,1.768,1.172c0.165,0.812-0.36,1.604-1.172,1.768
		C14.321,57.256,12.794,57.401,11.451,57.401z"/>
	<path d="M6.284,67.782c-3.251,0-5.28-1.131-5.418-1.211c-0.718-0.413-0.966-1.33-0.553-2.048c0.411-0.715,1.322-0.964,2.039-0.558
		c0.196,0.108,4.373,2.322,10.471-0.996c0.728-0.395,1.639-0.126,2.035,0.601c0.396,0.728,0.126,1.639-0.601,2.035
		C11.186,67.275,8.46,67.782,6.284,67.782z"/>
	<path d="M5.553,77.655c-1.262,0-2.062-0.223-2.148-0.249c-0.795-0.232-1.251-1.066-1.018-1.861
		c0.231-0.791,1.053-1.248,1.849-1.022c0.199,0.054,4.338,1.092,8.858-3.429c0.585-0.586,1.535-0.586,2.121,0
		c0.586,0.585,0.586,1.535,0,2.121C11.476,76.955,7.79,77.655,5.553,77.655z"/>
	<path d="M8.373,87.672c-0.747,0-1.394-0.557-1.487-1.318c-0.101-0.821,0.482-1.568,1.303-1.67c0.061-0.008,5.139-0.698,6.398-4.185
		c0.281-0.779,1.141-1.183,1.92-0.901c0.779,0.281,1.183,1.141,0.901,1.92c-1.89,5.232-8.568,6.107-8.852,6.142
		C8.496,87.668,8.434,87.672,8.373,87.672z"/>
	<path d="M15.506,95.541c-0.672,0-1.284-0.455-1.454-1.137c-0.201-0.802,0.285-1.614,1.085-1.817l0,0
		c0.035-0.009,3.456-0.921,3.802-3.423c0.113-0.821,0.873-1.398,1.691-1.281c0.821,0.113,1.394,0.87,1.281,1.691
		c-0.624,4.517-5.819,5.866-6.04,5.921C15.749,95.526,15.626,95.541,15.506,95.541z"/>
	<path d="M108.353,59.984"/>
	<path d="M107.781,81.733c-1.716,0-3.369-0.881-4.382-2.481c-0.57-0.899-0.697-2.136-0.347-3.393
		c0.414-1.484,1.423-2.75,2.702-3.387c0.706-0.353,2.86-1.429,4.792-0.365c0.726,0.399,0.99,1.312,0.59,2.038
		c-0.399,0.725-1.311,0.991-2.038,0.59c-0.355-0.195-1.067-0.047-2.005,0.422c-0.524,0.261-0.965,0.838-1.151,1.507
		c-0.141,0.504-0.08,0.87-0.009,0.982c0.523,0.827,1.627,1.443,2.822,0.847c0.097-0.048,0.177-0.096,0.255-0.146
		c0.695-0.453,1.623-0.256,2.076,0.438c0.452,0.694,0.256,1.624-0.438,2.076c-0.18,0.117-0.364,0.225-0.562,0.322
		C109.34,81.554,108.554,81.733,107.781,81.733z"/>
	<path d="M102.28,83.18c-0.112,0-0.225-0.013-0.338-0.039c-0.808-0.186-1.311-0.991-1.125-1.798c1.003-4.35,2.77-6.908,2.845-7.015
		c0.475-0.679,1.41-0.844,2.089-0.369c0.678,0.474,0.844,1.408,0.371,2.086c-0.038,0.056-1.525,2.26-2.382,5.972
		C103.58,82.71,102.962,83.18,102.28,83.18z"/>
	<path d="M82.896,136.458c-0.698,0-1.385-0.115-2.055-0.371c-0.581-0.222-0.964-0.78-0.964-1.401v-5.769c0-0.829,0.671-1.5,1.5-1.5
		s1.5,0.671,1.5,1.5v4.546c0.019,0,0.038,0,0.056,0c3.451,0,8.638-5.209,11.355-8.869c0.494-0.666,1.434-0.805,2.098-0.31
		c0.665,0.493,0.805,1.432,0.312,2.098C95.861,127.511,89.03,136.458,82.896,136.458z"/>
	<path d="M84.228,126.989c-0.428,0-0.853-0.182-1.149-0.535c-0.533-0.634-0.452-1.581,0.183-2.113l3.679-3.093
		c0.635-0.535,1.581-0.452,2.113,0.183c0.533,0.634,0.452,1.581-0.183,2.113l-3.679,3.093
		C84.911,126.874,84.568,126.989,84.228,126.989z"/>
	<path d="M81.729,142.738c-0.807,0-1.757-0.141-2.811-0.553c-0.771-0.302-1.152-1.172-0.851-1.943
		c0.302-0.771,1.171-1.152,1.943-0.851c1.817,0.711,3.02,0.101,3.032,0.095c0.032-0.019,0.065-0.036,0.098-0.052
		c4.972-2.372,7.864-7.068,7.893-7.115c4.455-6.385,3.692-10.727,3.405-12.361c-0.065-0.37-0.112-0.638-0.112-0.907
		c0-0.403,0-1.348,8.428-18.713c6.335-13.359,7.905-26.767,4.459-37.901c-2.846,0.139-9.878-0.11-15.443-5.153
		c-0.032-0.028-0.062-0.059-0.091-0.09c-0.215-0.23-5.004-5.446-6.071-12.047c-0.994-0.168-2.591-0.384-4.224-0.384
		c-0.829,0-1.5-0.671-1.5-1.5s0.671-1.5,1.5-1.5c3.003,0,5.79,0.626,5.907,0.652c0.633,0.144,1.102,0.679,1.161,1.326
		c0.534,5.827,4.923,10.854,5.385,11.367c5.932,5.325,14.143,4.261,14.225,4.25c0.707-0.098,1.393,0.319,1.626,0.997
		c4.163,12.091,2.66,26.751-4.23,41.28c-3.632,7.484-7.619,15.975-8.118,17.517c0.013,0.074,0.032,0.172,0.052,0.287
		c0.346,1.968,1.264,7.197-3.848,14.518c-0.083,0.143-3.33,5.412-9.079,8.169C84.18,142.278,83.188,142.738,81.729,142.738z"/>
	<path d="M85.977,46.444"/>
	<path d="M125.568,104.094c-0.792,0-1.454-0.621-1.497-1.421c-0.043-0.828,0.592-1.533,1.419-1.577
		c19.439-1.024,34.098-17.569,34.098-38.485c0-21.924-16.174-39.76-36.056-39.76c-15.26,0-29.092,8.67-35.238,22.089
		c-0.346,0.753-1.237,1.083-1.988,0.739c-0.753-0.345-1.084-1.235-0.739-1.988c6.633-14.482,21.535-23.84,37.965-23.84
		c21.535,0,39.056,19.182,39.056,42.76c0,22.539-15.881,40.372-36.94,41.481C125.622,104.093,125.595,104.094,125.568,104.094z"/>
	<path d="M124.76,104.147c-0.609,0-1.182-0.374-1.406-0.978c-0.289-0.776,0.107-1.64,0.884-1.929
		c22.551-8.382,23.017-32.339,23.025-33.354c0.24-13.946-6.477-22.631-17.966-23.249c-9.827-0.537-17.701,6.045-19.591,16.354
		c-0.149,0.815-0.936,1.352-1.746,1.205c-0.815-0.149-1.354-0.931-1.205-1.746c2.142-11.678,11.479-19.404,22.704-18.81
		c13.1,0.704,21.072,10.774,20.805,26.282c-0.002,0.253-0.461,27.016-24.98,36.13C125.11,104.117,124.934,104.147,124.76,104.147z"
		/>
	<path d="M114.666,74.707c-2.378,0-3.998-0.155-4.244-0.18c-0.824-0.084-1.423-0.82-1.339-1.644c0.083-0.823,0.821-1.426,1.644-1.34
		c0.028,0.003,0.415,0.04,1.077,0.075c0.149-0.052,0.31-0.081,0.477-0.083c1.427-0.016,2.775-1.958,4.078-3.835
		c0.674-0.971,1.37-1.974,2.146-2.833c2.507-2.782,5.366-4.508,5.486-4.581c6.917-4.377,13.26-1.535,15.643,0.582
		c0.463,0.412,0.626,1.065,0.41,1.646C136.031,73.283,121.87,74.707,114.666,74.707z M131.536,60.975
		c-1.742,0-3.771,0.473-5.971,1.866c-0.056,0.034-2.635,1.599-4.833,4.037c-0.648,0.717-1.261,1.599-1.909,2.532
		c-0.51,0.734-1.041,1.5-1.618,2.208c6.546-0.337,16.166-2.08,19.585-9.118C135.779,61.867,133.927,60.975,131.536,60.975z"/>
	<path d="M131.196,62.186"/>
	<path d="M138.696,63.24c-0.677,0-1.292-0.462-1.457-1.149c-0.072-0.291-1.849-7.063-10.894-6.887
		c-0.062,0.005-0.129-0.001-0.194-0.008c-0.025-0.004-4.573-0.314-11.449,5.219c-0.087,0.077-3.147,2.674-6.863,1.559
		c-0.793-0.238-1.244-1.074-1.005-1.868c0.237-0.794,1.075-1.246,1.868-1.005c2.119,0.633,4.066-0.979,4.085-0.995
		c7.432-5.982,12.683-5.96,13.565-5.903c5.909-0.096,9.358,2.358,11.194,4.446c2.015,2.292,2.587,4.647,2.61,4.746
		c0.19,0.807-0.31,1.614-1.116,1.804C138.925,63.227,138.81,63.24,138.696,63.24z"/>
	<path d="M160.607,70.09c-0.004,0-0.009,0-0.013,0c-0.828-0.007-1.494-0.684-1.487-1.513c0.233-27.62-20.347-32.04-20.555-32.081
		c-5.592-1.339-10.608-0.635-14.967,2.077c-10.183,6.336-13.734,21.587-13.769,21.741c-0.183,0.808-0.985,1.315-1.793,1.133
		c-0.808-0.182-1.315-0.984-1.133-1.792c0.152-0.675,3.847-16.611,15.099-23.622c5.069-3.158,10.856-3.989,17.207-2.467
		c0.176,0.034,23.166,4.962,22.912,35.036C162.1,69.427,161.429,70.09,160.607,70.09z"/>
	<path d="M112.287,50.05c-0.621,0-1.202-0.389-1.417-1.008c-0.18-0.512-4.52-12.44-17.91-11.537
		c-0.823,0.054-1.542-0.57-1.596-1.397c-0.055-0.827,0.57-1.541,1.397-1.596c15.705-1.046,20.893,13.401,20.944,13.548
		c0.271,0.783-0.145,1.637-0.928,1.908C112.615,50.023,112.45,50.05,112.287,50.05z"/>
	<path d="M120.646,39.723c-0.668,0-1.277-0.45-1.452-1.126c-0.114-0.438-2.872-10.511-13.883-11.172
		c-0.827-0.049-1.457-0.76-1.407-1.587c0.05-0.827,0.76-1.456,1.587-1.407c13.235,0.793,16.577,13.295,16.609,13.421
		c0.205,0.803-0.28,1.62-1.083,1.825C120.894,39.708,120.769,39.723,120.646,39.723z"/>
	<path d="M126.058,44.64c-0.373,0-0.745-0.138-1.036-0.415c-0.599-0.572-0.622-1.521-0.049-2.121
		c3.442-3.606,3.642-7.591,3.644-7.631c0.021-0.42,0.406-9.87-7.771-11.5c-0.812-0.162-1.34-0.952-1.178-1.765
		s0.951-1.338,1.765-1.178c8.595,1.715,10.417,10.291,10.18,14.586c-0.007,0.187-0.255,5.144-4.47,9.559
		C126.848,44.484,126.453,44.64,126.058,44.64z"/>
	<path d="M134.173,44.886c-0.551,0-1.082-0.306-1.344-0.833c-0.369-0.742-0.066-1.642,0.676-2.011c5.4-2.683,6.648-7.004,6.66-7.048
		c0.026-0.086,1.379-4.649-0.588-8.061c-0.414-0.718-0.167-1.635,0.55-2.049c0.719-0.415,1.635-0.167,2.049,0.55
		c2.63,4.561,0.941,10.166,0.868,10.403c-0.051,0.186-1.617,5.619-8.204,8.891C134.625,44.835,134.397,44.886,134.173,44.886z"/>
	<path d="M142.653,49.62c-0.726,0-1.364-0.528-1.48-1.268c-0.128-0.819,0.431-1.586,1.25-1.714c8.963-1.404,9.799-8.38,9.806-8.45
		c0.087-0.824,0.834-1.421,1.648-1.335c0.824,0.086,1.422,0.825,1.335,1.648c-0.01,0.099-0.273,2.439-1.948,4.961
		c-1.526,2.298-4.566,5.229-10.376,6.139C142.809,49.614,142.73,49.62,142.653,49.62z"/>
	<path d="M151.137,57.401c-1.343,0-2.87-0.146-4.599-0.496c-0.812-0.165-1.337-0.956-1.172-1.768
		c0.164-0.812,0.953-1.339,1.768-1.172c7.822,1.586,10.167-1.572,10.263-1.707c0.472-0.666,1.398-0.845,2.074-0.388
		c0.675,0.458,0.871,1.358,0.427,2.043C159.788,54.083,157.552,57.401,151.137,57.401z"/>
	<path d="M156.304,67.782c-2.177,0-4.901-0.507-7.972-2.177c-0.728-0.396-0.997-1.307-0.601-2.035s1.306-0.996,2.035-0.601
		c6.114,3.326,10.297,1.092,10.472,0.995c0.72-0.398,1.634-0.144,2.038,0.573c0.405,0.717,0.161,1.624-0.553,2.034
		C161.584,66.651,159.555,67.782,156.304,67.782z"/>
	<path d="M157.035,77.655c-2.236,0-5.922-0.7-9.661-4.439c-0.586-0.586-0.586-1.536,0-2.121c0.586-0.586,1.536-0.586,2.121,0
		c4.604,4.605,8.804,3.444,8.845,3.433c0.795-0.235,1.628,0.223,1.861,1.018c0.233,0.795-0.223,1.628-1.018,1.861
		C159.096,77.432,158.296,77.655,157.035,77.655z"/>
	<path d="M154.215,87.672c-0.061,0-0.123-0.003-0.184-0.011c-0.284-0.035-6.961-0.91-8.852-6.142
		c-0.282-0.779,0.122-1.639,0.901-1.92c0.779-0.282,1.639,0.122,1.92,0.901c1.25,3.461,6.344,4.178,6.395,4.184
		c0.822,0.101,1.407,0.849,1.307,1.671C155.609,87.115,154.962,87.672,154.215,87.672z"/>
	<path d="M147.083,95.541c-0.12,0-0.243-0.015-0.365-0.045c-0.221-0.055-5.417-1.404-6.04-5.922c-0.113-0.82,0.46-1.578,1.281-1.69
		c0.813-0.118,1.577,0.46,1.69,1.281c0.343,2.491,3.761,3.412,3.796,3.421c0.804,0.201,1.292,1.015,1.091,1.819
		C148.367,95.086,147.755,95.541,147.083,95.541z"/>
</g>
<g>
</g>
<g>
</g>
<g>
</g>
<g>
</g>
<g>
</g>
<g>
</g>
<g>
</g>
<g>
</g>
<g>
</g>
<g>
</g>
<g>
</g>
<g>
</g>
<g>
</g>
<g>
</g>
<g>
</g>
</svg>
