<?xml version="1.0" encoding="iso-8859-1"?>
<!-- Generator: Adobe Illustrator 19.0.0, SVG Export Plug-In . SVG Version: 6.00 Build 0)  -->
<svg version="1.1" id="Layer_1" xmlns="http://www.w3.org/2000/svg" xmlns:xlink="http://www.w3.org/1999/xlink" x="0px" y="0px"
	 viewBox="0 0 512.003 512.003" style="enable-background:new 0 0 512.003 512.003;" xml:space="preserve">
<path style="fill:#91AAC4;" d="M301.584,444.563l-2.979,15.647c-0.351,1.863-1.869,3.203-3.627,3.203h-35.105
	c-2.415,0-4.302-2.265-4.071-4.884l1.961-24.689l12.333-155.375l46.384-22.272l-32.197,171.293c-0.093,0.493-0.101,0.986-0.019,1.47
	c0.176,1.179,0.833,2.226,1.822,2.839l13.693,8.438C301.177,441.099,301.908,442.841,301.584,444.563z"/>
<path style="fill:#476775;" d="M301.584,444.563l-2.979,15.647c-0.351,1.863-1.869,3.203-3.627,3.203h-35.105
	c-2.415,0-4.302-2.265-4.071-4.884l1.961-24.689l26.502-4.884c0.176,1.179,0.833,2.226,1.822,2.839l13.693,8.438
	C301.177,441.099,301.908,442.841,301.584,444.563z"/>
<path style="fill:#91AAC4;" d="M116.319,370.274v54.503c0,0.927,0.312,1.813,0.876,2.508c0.282,0.363,0.624,0.665,1.027,0.916
	l16.337,10.099c0.967,0.604,1.641,1.591,1.842,2.708l3.211,17.651c0.453,2.477-1.449,4.752-3.956,4.752H96.047
	c-2.225,0-4.026-1.802-4.026-4.028V348.595l12.492-67.935l80.022,15.103l-43.897,72.497L116.319,370.274z"/>
<g>
	<path style="fill:#476775;" d="M135.656,463.412H96.047c-2.225,0-4.026-1.802-4.026-4.028v-27.75l25.175-4.35
		c0.282,0.363,0.624,0.665,1.027,0.916l16.337,10.099c0.967,0.604,1.641,1.591,1.842,2.708l3.211,17.651
		C140.064,461.136,138.161,463.412,135.656,463.412z"/>
	<path style="fill:#476775;" d="M80.249,201.13c-13.915-0.457-52.185,2.597-72.037,46.996c-1.169,2.616,0.517,5.62,3.362,5.957
		c11.034,1.308,36.063,2.414,50.606-11.596c13.521-13.024,19.579-28.181,21.957-35.886C84.959,203.94,83.03,201.221,80.249,201.13z"
		/>
</g>
<path style="fill:#E1E9F2;" d="M504.163,86.486v9.352c0,0.575-0.01,1.139-0.042,1.693c-0.993,19.184-18.892,27.648-38.4,24.242
	l-40.782-7.126c0,0,3.448,92.36-10.522,151.468c-3.145,13.302-9.697,25.495-18.442,35.997
	c-34.534,41.451-41.347,121.093-41.347,121.093c0.063,0.492,0.209,0.973,0.428,1.39c0.272,0.522,0.658,0.982,1.128,1.337
	l20.888,15.924c1.275,0.961,1.849,2.59,1.473,4.138l-3.438,14.326c-0.428,1.818-2.038,3.093-3.908,3.093h-37.533
	c-2.048,0-3.856-1.411-4.326-3.427l-5.632-27.314l-1.62-109.349c-0.47-1.954-2.173-3.354-4.18-3.417l-176.431-7.074
	c-1.17-0.042-2.32,0.376-3.187,1.202l-58.786,54.596c-0.825,0.773-1.912,1.191-3.041,1.191H57.072c-2.466,0-4.462,1.996-4.462,4.463
	v54.596c0,0.72,0.188,1.432,0.512,2.048c0.293,0.585,0.731,1.108,1.275,1.515l10.313,7.742c0.815,0.618,1.411,1.495,1.651,2.476
	l3.803,15.224c0.7,2.811-1.411,5.528-4.315,5.528H29.236c-2.466,0-4.451-1.996-4.451-4.451V344.795c0-1.724,0.993-3.302,2.55-4.033
	l12.706-14.305c1.557-0.742,2.56-2.309,2.56-4.032v-60.678c0-36.289,26.969-66.905,62.945-71.471l153.067,1.39
	c30.877,0.283,58.493-19.163,68.639-48.347l24.545-70.625c5.026-14.431,18.631-24.106,33.907-24.106h27.188
	c7.899,0,16.959,1.421,26.112,3.553c28.045,6.541,57.062,19.842,57.062,19.842C500.537,71.982,504.163,82.013,504.163,86.486z"/>
<g>
	<path style="fill:#B3D2F2;" d="M44.287,348.601c0-1.807,0.997-3.444,2.557-4.21l12.703-14.921c1.56-0.766,2.557-2.404,2.557-4.2
		v-63.274c0-33.283,20.871-61.984,50.375-71.662l-6.929-0.064c-35.975,4.57-62.951,35.191-62.951,71.479v60.675
		c0,1.721-0.997,3.291-2.557,4.027l-12.703,14.31c-1.56,0.735-2.557,2.305-2.557,4.038V458.96c0,2.459,1.992,4.451,4.449,4.451
		h15.056V348.601z"/>
	<path style="fill:#B3D2F2;" d="M346.753,138.497l24.552-73.649c2.12-6.358,5.785-11.817,10.447-16.017
		c-13.632,1.506-25.371,10.69-29.952,23.868l-24.552,70.624c-7.835,22.537-26.102,39.263-48.24,45.583
		C309.525,188.801,336.709,168.628,346.753,138.497z"/>
	<path style="fill:#B3D2F2;" d="M485.224,116.019l-40.783-7.422c0,0,0.124,3.466,0.23,9.497l21.049,3.673
		c10.747,1.876,21.005,0.147,28.219-4.989C491.105,116.804,488.184,116.558,485.224,116.019z"/>
	<path style="fill:#B3D2F2;" d="M343.21,440.236l-1.621-114.032c-0.463-2.036-2.174-3.496-4.177-3.559l-15.89-0.666
		c0.255,0.405,0.447,0.856,0.562,1.342l1.62,109.349l5.637,27.318c0.473,2.014,2.275,3.423,4.328,3.423h14.126L343.21,440.236z"/>
</g>
<g>
	<path style="fill:#476775;" d="M504.163,86.486v9.352c0,0.575-0.01,1.139-0.042,1.693c-26.614-9.55-53.833-14.973-57.459-26.812
		c-1.923-6.28-4.775-12.789-7.659-18.577c28.045,6.541,57.062,19.842,57.062,19.842C500.537,71.982,504.163,82.013,504.163,86.486z"
		/>
	<path style="fill:#476775;" d="M65.85,463.412H29.231c-2.466,0-4.449-1.994-4.449-4.461v-23.803l28.345-4.219
		c0.292,0.584,0.725,1.108,1.269,1.51l10.317,7.743c0.815,0.614,1.41,1.5,1.651,2.476l3.804,15.224
		C70.863,460.693,68.749,463.412,65.85,463.412z"/>
	<path style="fill:#476775;" d="M378.544,445.992l-3.432,14.328c-0.433,1.813-2.044,3.091-3.915,3.091h-37.525
		c-2.053,0-3.856-1.41-4.328-3.423l-5.637-27.317l31.355-8.075c0.272,0.523,0.654,0.977,1.127,1.339l20.886,15.919
		C378.343,442.821,378.917,444.441,378.544,445.992z"/>
</g>
<path style="fill:#F2E5CB;" d="M402.773,66.566L402.773,66.566c0-10.527-9.002-18.801-19.487-17.914l-55.304,4.683
	c-41.542,3.518-79.623,24.56-104.718,57.863l0,0l33.304-14.489c18.45-8.026,38.354-12.168,58.474-12.168h69.761
	C394.727,84.543,402.773,76.494,402.773,66.566z"/>
<path style="fill:#91AAC4;" d="M366.954,89.52l2.535-20.5c1.63-13.181,15.258-23.107,31.411-22.877l6.095,0.087
	c5.353,0.076,8.893,5.111,6.729,9.569L401.397,81.19C392.297,101.488,366.847,102.515,366.954,89.52z"/>
<path d="M34.758,263.278v9.26c0,4.333,3.5,7.83,7.837,7.83c4.326,0,7.837-3.497,7.837-7.83v-9.573c0-1.096,0.031-2.182,0.084-3.257
	c0.355-6.974,1.829-13.677,4.274-19.92c3.971-10.2,10.491-19.189,18.819-26.133c5.329-4.437,11.4-8.037,18.024-10.586
	c4.556-1.753,9.373-3.006,14.388-3.685l110.551,1.014h0.073c4.295,0,7.795-3.466,7.837-7.768c0.042-4.323-3.438-7.862-7.764-7.893
	l-111.105-1.023c-0.345,0.01-0.7,0.022-1.055,0.064c-11.358,1.441-21.932,5.251-31.222,10.889
	c-7.889,0.439-18.787,2.13-30.124,7.277c-18.62,8.435-32.81,23.314-42.162,44.215c-1.567,3.497-1.369,7.58,0.522,10.909
	c1.891,3.321,5.277,5.565,9.07,6.014c3.73,0.449,8.286,0.805,13.281,0.805C27.371,263.884,31.028,263.717,34.758,263.278z
	 M50.108,216.005c-6.698,9.166-11.473,19.784-13.772,31.227c-6.823,1.138-13.615,1.097-18.787,0.762
	C26.472,230.674,38.572,221.152,50.108,216.005z"/>
<path d="M422.887,208.782c-4.3-0.415-8.127,2.766-8.527,7.074c-1.797,19.323-4.344,36.036-7.57,49.674
	c-2.754,11.639-8.418,22.659-16.832,32.752c-31.594,37.886-40.824,104.228-42.731,121.327l-15.833,4.074l-1.472-99.311
	c-0.008-0.569-0.078-1.137-0.21-1.691c-1.279-5.385-6.035-9.264-11.489-9.427l-176.468-7.074c-3.312-0.111-6.438,1.067-8.796,3.285
	L86.492,352.59c-0.005,0.005-0.01,0.009-0.016,0.015l-11.33,10.515H57.068c-6.78,0-12.296,5.512-12.296,12.288v49.926l-12.158,1.808
	v-79.439c0.203-0.186,0.397-0.381,0.581-0.588l11.913-13.406c3.286-2.267,5.324-6.053,5.324-10.114v-10.918
	c0-4.326-3.508-7.83-7.837-7.83s-7.837,3.505-7.837,7.83v9.156c-0.203,0.186-0.397,0.381-0.58,0.588l-11.914,13.407
	c-3.285,2.267-5.324,6.057-5.324,10.123v90.274v23.783v0.01c0,6.77,5.511,12.278,12.286,12.278h36.619
	c3.804,0,7.33-1.716,9.673-4.706c2.347-2.995,3.168-6.833,2.249-10.547l-3.799-15.187c-0.672-2.721-2.285-5.154-4.555-6.864
	l-8.967-6.724v-49.486h16.019c2.83,0,5.533-0.968,7.719-2.727v56.57c0,0.03-0.004,0.061-0.004,0.091v27.726
	c0,6.537,5.322,11.855,11.864,11.855h39.61h0.003c3.533,0,6.855-1.557,9.115-4.273c2.086-2.505,3.018-5.722,2.649-8.911
	c-0.03-0.265-0.052-0.531-0.1-0.796l-3.209-17.626c-0.033-0.188-0.088-0.369-0.131-0.553c-0.05-0.217-0.091-0.438-0.154-0.651
	c-0.04-0.135-0.094-0.262-0.138-0.395c-0.086-0.258-0.166-0.518-0.27-0.769c-0.091-0.22-0.201-0.432-0.305-0.646
	c-0.074-0.153-0.137-0.31-0.217-0.459c-0.974-1.817-2.419-3.377-4.22-4.504l-14.524-8.97v-45.13l17.132-1.413
	c2.504-0.206,4.758-1.599,6.059-3.748L177.74,323.3l80.773,3.238l-10.52,132.369c-0.11,1.252-0.024,2.5,0.23,3.705
	c0.013,0.059,0.018,0.117,0.03,0.176c0.026,0.115,0.066,0.227,0.095,0.341c0.502,1.971,1.463,3.808,2.849,5.32
	c2.241,2.447,5.403,3.85,8.675,3.85h0.004h35.098h0.004c0.69,0,1.368-0.064,2.028-0.185c4.306-0.787,7.858-4.03,9.057-8.359
	c0.094-0.333,0.173-0.675,0.239-1.021l1.287-6.757l1.7-8.896c0.631-3.35-0.195-6.758-2.123-9.396
	c-0.876-1.198-1.978-2.24-3.276-3.043l-11.448-7.048l18.615-98.949l3.252,0.131l1.558,105.008c0,0.02,0,0.04,0.001,0.06v0.025
	c0.001,0.07,0.01,0.14,0.013,0.209c0.007,0.172,0.014,0.345,0.032,0.518c0.027,0.248,0.065,0.495,0.115,0.739l5.637,27.295
	c0.015,0.069,0.029,0.138,0.046,0.207c1.308,5.57,6.226,9.462,11.958,9.462h37.526c5.513,0,10.257-3.742,11.537-9.095l3.432-14.316
	c0.039-0.163,0.067-0.327,0.098-0.491c0.024-0.121,0.053-0.242,0.073-0.365c0.024-0.147,0.038-0.295,0.055-0.442
	c0.018-0.139,0.04-0.278,0.052-0.417c0.014-0.15,0.016-0.299,0.023-0.449c0.007-0.136,0.019-0.273,0.022-0.409
	c0.002-0.146-0.006-0.29-0.008-0.436c-0.003-0.139-0.001-0.28-0.008-0.418c-0.007-0.133-0.025-0.264-0.037-0.396
	c-0.014-0.15-0.022-0.301-0.042-0.45c-0.031-0.248-0.074-0.493-0.121-0.737c-0.006-0.032-0.01-0.066-0.017-0.098
	c-0.053-0.265-0.117-0.528-0.189-0.788c-0.003-0.011-0.005-0.023-0.008-0.034c-0.678-2.442-2.136-4.657-4.236-6.258l-19.1-14.546
	c1.586-14.236,10.237-79.021,39.274-113.844c9.983-11.973,16.727-25.153,20.044-39.172c3.394-14.345,6.06-31.783,7.923-51.83
	C430.365,212.998,427.197,209.183,422.887,208.782z M32.613,456.633v-13.659l17.803-2.648l3.573,2.678l5.06,3.795l2.46,9.834H32.613
	z M99.856,456.633v-17.329l15.384-2.656l13.748,8.491l2.091,11.494L99.856,456.633L99.856,456.633z M136.008,361.919l-20.338,1.676
	c-4.066,0.335-7.193,3.728-7.193,7.804v50.525l-8.62,1.489v-61.852l42.745-39.673l17.249,0.692L136.008,361.919z M263.895,456.633
	l1.201-15.106l15.631-2.879c0.036,0.029,0.076,0.052,0.113,0.08c0.359,0.287,0.734,0.56,1.13,0.807l11.453,7.053l-1.077,5.651
	l-0.839,4.393h-27.61V456.633z M277.289,423.356l-10.91,2.009l7.804-98.204l21.043,0.844L277.289,423.356z M368.189,456.633h-31.758
	l-3.544-17.162l19.973-5.141l17.483,13.313L368.189,456.633z"/>
<path d="M498.199,65.73c-7.798-3.484-51.864-22.57-82.916-23.531c-2.4-1.518-5.2-2.366-8.178-2.405l-6.093-0.084
	c-5.294-0.08-10.455,0.748-15.308,2.442h-0.001c-0.115,0-0.235,0.008-0.353,0.01c-0.045,0-0.089-0.002-0.134-0.003
	c-0.825-0.016-1.68,0.011-2.587,0.083l-55.307,4.678c-43.703,3.702-83.912,25.902-110.317,60.909c-2.143,2.84-2.1,6.767,0.104,9.56
	c1.522,1.929,3.811,2.983,6.158,2.983c1.05,0,2.113-0.212,3.123-0.651l33.304-14.473c17.557-7.638,36.179-11.512,55.344-11.512
	h21.623l-16.81,48.325c-8.983,25.814-33.274,43.051-60.573,43.051c-0.196,0-0.397-0.001-0.593-0.003c-0.024,0-0.048,0-0.072,0
	c-4.295,0-7.796,3.459-7.836,7.758c-0.04,4.325,3.437,7.862,7.766,7.903c0.247,0.002,0.492,0.003,0.738,0.003
	c33.97,0,64.201-21.45,75.376-53.57l18.598-53.467h6.1c1.092,6.476,6.01,11.437,13.178,13.004c1.626,0.354,3.329,0.529,5.074,0.529
	c4.829,0,9.988-1.335,14.74-3.884c4.963-2.659,11.783-7.856,16.152-17.511l12.286-25.28c0.354-0.732,0.635-1.484,0.856-2.243
	c29.975,3.412,70.713,21.921,71.163,22.126c0.373,0.171,0.76,0.312,1.154,0.422c1.073,1.568,2.373,5.247,2.373,6.95v9.343
	c0,5.841-1.959,10.448-5.824,13.693c-5.301,4.455-14.063,6.14-23.432,4.507l-40.783-7.12c-2.326-0.406-4.72,0.259-6.502,1.814
	c-1.783,1.554-2.766,3.83-2.678,6.192c0.01,0.257,0.949,26.109-0.208,58.69c-0.154,4.323,3.229,7.949,7.554,8.102
	c0.095,0.003,0.189,0.005,0.283,0.005c4.199,0,7.677-3.326,7.826-7.553c0.751-21.144,0.632-39.554,0.446-50.18l31.368,5.477
	c14.081,2.452,27.282-0.444,36.213-7.946c7.466-6.27,11.411-15.151,11.411-25.68v-9.343C512,81.916,507.865,67.595,498.199,65.73z
	 M258.352,88.849c20.378-14.908,44.665-24.154,70.29-26.323l36.132-3.057c-1.588,3.106-2.634,6.457-3.069,9.968l-1.066,8.641
	h-45.607C295.482,78.078,276.44,81.7,258.352,88.849z M394.346,79.137c-0.034,0.072-0.068,0.145-0.101,0.217
	c-3.351,7.47-9.533,11.102-14.2,12.011c-2.841,0.55-4.654,0.047-5.216-0.288l0.521-4.204c0.001-0.006,0-0.013,0.001-0.018
	l1.91-15.502c0.7-5.663,4.933-10.66,11.395-13.54h16.054L394.346,79.137z"/>
<ellipse cx="425.242" cy="73.487" rx="7.837" ry="7.83"/>
<g>
</g>
<g>
</g>
<g>
</g>
<g>
</g>
<g>
</g>
<g>
</g>
<g>
</g>
<g>
</g>
<g>
</g>
<g>
</g>
<g>
</g>
<g>
</g>
<g>
</g>
<g>
</g>
<g>
</g>
</svg>
