<svg height="496pt" viewBox="0 0 496 496.008" width="496pt" xmlns="http://www.w3.org/2000/svg"><path d="m344.003906 144c-26.472656 0-48 21.527344-48 48s21.527344 48 48 48 48-21.527344 48-48-21.527344-48-48-48zm0 80c-17.648437 0-32-14.351562-32-32s14.351563-32 32-32c17.648438 0 32 14.351562 32 32s-14.351562 32-32 32zm0 0"/><path d="m344.003906 280c-26.472656 0-48 21.527344-48 48s21.527344 48 48 48 48-21.527344 48-48-21.527344-48-48-48zm8 78.863281v-14.863281h-16v14.863281c-11.191406-2.910156-19.953125-11.671875-22.863281-22.863281h14.863281v-16h-14.863281c2.910156-11.191406 11.671875-19.953125 22.863281-22.863281v14.863281h16v-14.863281c11.191406 2.910156 19.953125 11.671875 22.863282 22.863281h-14.863282v16h14.863282c-2.910157 11.191406-11.671876 19.953125-22.863282 22.863281zm0 0"/><path d="m448.003906 136v24h-24v-40c0-19.3125-13.769531-35.472656-32-39.191406v-80.808594h-48v16h-32v-16h-48v16h-32v-16h-48v80h-40v-16c0-8.824219-7.175781-16-16-16h-64c-8.824218 0-16 7.175781-16 16v16h-24c-13.230468 0-23.99999975 10.769531-23.99999975 24v128c0 10.414062 6.71093775 19.214844 15.99999975 22.527344v33.472656h32v48h16v40h16v-40h16v-16h32v8h16v-32h-16v8h-32v-16h32v-32h8c13.230469 0 24-10.769531 24-24v-16h80v176h-224c-8.824218 0-15.99999975 7.175781-15.99999975 16v32c0 8.824219 7.17578175 16 15.99999975 16h32v16.007812c0 13.230469 10.769532 24 24 24l328-.007812c13.230469 0 24-10.769531 24-24v-232h24v24h48v-128zm-72-120v64h-16v-64zm-32 64h-32v-16h32zm0-48v16h-32v-16zm-48-16v64h-16v-64zm-32 64h-32v-16h32zm0-48v16h-32v-16zm-64-16h16v64h-16zm-24 80v72h-16v-72zm-112-32h64v16h-64zm48 136h-16v-64h16zm-96-96c0-4.414062 3.59375-8 8-8h88v24h-32v96h32v24h-88c-4.40625 0-8-3.585938-8-8zm64 216h-16v-32h16zm32-48h-80v-16h80zm32-40c0 4.414062-3.59375 8-8 8h-8v-144h16zm112-14.527344c9.289063 3.3125 16 12.113282 16 22.527344v152h-16zm-240 190.527344h288l.007813 32h-288.007813zm392 64c0 4.414062-3.59375 8-8 8l-328 .007812c-4.40625 0-8-3.582031-8-8v-16.007812h240c8.824219 0 16-7.175781 16-16v-32c0-8.824219-7.175781-16-16-16h-16v-152c0-22.054688-17.945312-40-40-40h-88v-16h32v-88h192c13.230469 0 24 10.769531 24 24zm16-248v-48h24v48zm56 24h-16v-96h16zm0 0"/><path d="m336.003906 184h16v16h-16zm0 0"/></svg>