<svg xmlns="http://www.w3.org/2000/svg" viewBox="0 0 448.5 406.19"><defs><style>.cls-1{fill:#ff4f6f;}.cls-2{fill:#fab95b;}.cls-3{stroke:#000;stroke-miterlimit:10;stroke-width:4px;}</style></defs><title>alt-logo</title><g id="Layer_2" data-name="Layer 2"><g id="Capa_1" data-name="Capa 1"><path class="cls-1" d="M440,201.39V372.06a25.57,25.57,0,0,1-25.6,25.6H107.17a25.56,25.56,0,0,1-25.6-25.6V201.39a25.56,25.56,0,0,1,25.6-25.6H329l42.67-52.31,11-13.48a8.56,8.56,0,0,1,14.59,6.06v59.73h17.07a25.57,25.57,0,0,1,25.6,25.6Z"/><path class="cls-1" d="M414.37,201.39V372.06a25.57,25.57,0,0,1-25.6,25.6H107.17a25.56,25.56,0,0,1-25.6-25.6V201.39a25.56,25.56,0,0,1,25.6-25.6H329l42.67-52.31v52.31h17.07a22.63,22.63,0,0,1,8,1.37,24.51,24.51,0,0,1,3.67,1.53A25.42,25.42,0,0,1,414.37,201.39Z"/><path class="cls-2" d="M226.29,22.86V127.19a15.62,15.62,0,0,1-15.65,15.64H75L42.22,183.05a5.23,5.23,0,0,1-8.92-3.7V142.83H22.86A13.87,13.87,0,0,1,18,142,15.52,15.52,0,0,1,7.22,127.19V22.86A15.6,15.6,0,0,1,22.86,7.22H210.64a15.62,15.62,0,0,1,15.65,15.64Z"/><path class="cls-2" d="M210.64,22.86V127.19A15.6,15.6,0,0,1,195,142.83H59.38l-26.08,32v-32H22.86A13.87,13.87,0,0,1,18,142,15.52,15.52,0,0,1,7.22,127.19V22.86A15.6,15.6,0,0,1,22.86,7.22H195a15.6,15.6,0,0,1,15.64,15.64Z"/><path class="cls-3" d="M22.86,148.05h5.22v31.29a10.43,10.43,0,0,0,17.81,7.37,4.4,4.4,0,0,0,.35-.39L77.5,148.05H210.64a20.9,20.9,0,0,0,20.87-20.86V22.86A20.9,20.9,0,0,0,210.64,2H22.86A20.89,20.89,0,0,0,2,22.86V127.19A20.89,20.89,0,0,0,22.86,148.05ZM12.43,22.86A10.45,10.45,0,0,1,22.86,12.43H210.64a10.45,10.45,0,0,1,10.44,10.43V127.19a10.45,10.45,0,0,1-10.44,10.43H75a1.84,1.84,0,0,0-.25,0,10.32,10.32,0,0,0-2,.49,4.89,4.89,0,0,0-.77.51,5.84,5.84,0,0,0-.86.7c-.05.07-.14.1-.19.17L38.51,179.29V142.83a5.21,5.21,0,0,0-5.21-5.21H22.86a10.44,10.44,0,0,1-10.43-10.43V22.86Z"/><path d="M414.37,167.26h-8.54V116.08A17.06,17.06,0,0,0,376.7,104a5.88,5.88,0,0,0-.58.64L325,167.26H107.17A34.17,34.17,0,0,0,73,201.39V372.06a34.18,34.18,0,0,0,34.14,34.13h307.2a34.17,34.17,0,0,0,34.13-34.13V201.39A34.17,34.17,0,0,0,414.37,167.26Zm17.06,204.8a17.08,17.08,0,0,1-17.06,17.07H107.17A17.09,17.09,0,0,1,90.1,372.06V201.39a17.08,17.08,0,0,1,17.07-17.06H329a8.4,8.4,0,0,0,3.46-.77c.25-.15.5-.32.74-.49a8.65,8.65,0,0,0,2.11-1.65c.09-.09.22-.13.3-.23l53.13-65v59.64a8.53,8.53,0,0,0,8.53,8.54h17.07a17.08,17.08,0,0,1,17.06,17.06V372.06Z"/></g></g></svg>