<svg xmlns="http://www.w3.org/2000/svg" viewBox="0 0 448.5 406.19"><defs><style>.cls-1{fill:#bc3c5e;}.cls-2{fill:#ff4f6f;}.cls-3{fill:#ce9146;}.cls-4{fill:#fab95b;}.cls-5{stroke:#000;stroke-miterlimit:10;stroke-width:4px;}</style></defs><title>logo</title><g id="Layer_2" data-name="Layer 2"><g id="Capa_1" data-name="Capa 1"><path class="cls-1" d="M440,201.39V372.06a25.57,25.57,0,0,1-25.6,25.6H107.17a25.56,25.56,0,0,1-25.6-25.6V201.39a25.56,25.56,0,0,1,25.6-25.6H329l42.67-52.31,11-13.48a8.56,8.56,0,0,1,14.59,6.06v59.73h17.07a25.57,25.57,0,0,1,25.6,25.6Z"/><path class="cls-2" d="M414.37,201.39V372.06a25.57,25.57,0,0,1-25.6,25.6H107.17a25.56,25.56,0,0,1-25.6-25.6V201.39a25.56,25.56,0,0,1,25.6-25.6H329l42.67-52.31v52.31h17.07a22.63,22.63,0,0,1,8,1.37,24.51,24.51,0,0,1,3.67,1.53A25.42,25.42,0,0,1,414.37,201.39Z"/><path class="cls-3" d="M226.29,22.86V127.19a15.62,15.62,0,0,1-15.65,15.64H75L42.22,183.05a5.23,5.23,0,0,1-8.92-3.7V142.83H22.86A13.87,13.87,0,0,1,18,142,15.52,15.52,0,0,1,7.22,127.19V22.86A15.6,15.6,0,0,1,22.86,7.22H210.64a15.62,15.62,0,0,1,15.65,15.64Z"/><path class="cls-4" d="M210.64,22.86V127.19A15.6,15.6,0,0,1,195,142.83H59.38l-26.08,32v-32H22.86A13.87,13.87,0,0,1,18,142,15.52,15.52,0,0,1,7.22,127.19V22.86A15.6,15.6,0,0,1,22.86,7.22H195a15.6,15.6,0,0,1,15.64,15.64Z"/><path d="M377.91,209.63h0l-9.09,14.44a8.53,8.53,0,0,0,14.44,9.1h0l9.09-14.45a8.53,8.53,0,1,0-14.44-9.09Z"/><path d="M355.83,221.85A8.67,8.67,0,0,0,357,219.1l3.6-16.68a8.53,8.53,0,1,0-16.68-3.61l-3.6,16.68a8.53,8.53,0,0,0,15.56,6.36Z"/><path d="M406.27,231.18l-13.49,10.46a8.53,8.53,0,0,0,10.47,13.48l13.48-10.46a8.53,8.53,0,0,0-10.46-13.48Z"/><path class="cls-5" d="M80.24,64.59a5.22,5.22,0,0,0,5.22-5.21A26,26,0,0,1,95.1,39.13a26.35,26.35,0,0,1,22.11-5.24A25.91,25.91,0,0,1,137,53.71a26.13,26.13,0,0,1-21.75,31.48,10.47,10.47,0,0,0-9,10.29v5.63a5.22,5.22,0,0,0,10.43,0V95.52A36.52,36.52,0,1,0,75,59.38,5.22,5.22,0,0,0,80.24,64.59Z"/><path class="cls-5" d="M115.24,118.27a6,6,0,0,0-1.72-1.1,5.25,5.25,0,0,0-4,0,5.32,5.32,0,0,0-1.72,1.1,5.71,5.71,0,0,0-1.09,1.72,5.17,5.17,0,0,0-.42,2,7.19,7.19,0,0,0,.11,1,3.06,3.06,0,0,0,.31.94,3.76,3.76,0,0,0,.47.94l.62.78a5.47,5.47,0,0,0,3.71,1.52,4.52,4.52,0,0,0,2-.42,6.23,6.23,0,0,0,1.72-1.1l.63-.78a4.59,4.59,0,0,0,.47-.94,3.46,3.46,0,0,0,.31-.94,7.19,7.19,0,0,0,.11-1,5.17,5.17,0,0,0-.42-2A6.08,6.08,0,0,0,115.24,118.27Z"/><path class="cls-5" d="M22.86,148.05h5.22v31.29a10.43,10.43,0,0,0,17.81,7.37,4.4,4.4,0,0,0,.35-.39L77.5,148.05H210.64a20.9,20.9,0,0,0,20.87-20.86V22.86A20.9,20.9,0,0,0,210.64,2H22.86A20.89,20.89,0,0,0,2,22.86V127.19A20.89,20.89,0,0,0,22.86,148.05ZM12.43,22.86A10.45,10.45,0,0,1,22.86,12.43H210.64a10.45,10.45,0,0,1,10.44,10.43V127.19a10.45,10.45,0,0,1-10.44,10.43H75a1.84,1.84,0,0,0-.25,0,10.32,10.32,0,0,0-2,.49,4.89,4.89,0,0,0-.77.51,5.84,5.84,0,0,0-.86.7c-.05.07-.14.1-.19.17L38.51,179.29V142.83a5.21,5.21,0,0,0-5.21-5.21H22.86a10.44,10.44,0,0,1-10.43-10.43V22.86Z"/><path d="M414.37,167.26h-8.54V116.08A17.06,17.06,0,0,0,376.7,104a5.88,5.88,0,0,0-.58.64L325,167.26H107.17A34.17,34.17,0,0,0,73,201.39V372.06a34.18,34.18,0,0,0,34.14,34.13h307.2a34.17,34.17,0,0,0,34.13-34.13V201.39A34.17,34.17,0,0,0,414.37,167.26Zm17.06,204.8a17.08,17.08,0,0,1-17.06,17.07H107.17A17.09,17.09,0,0,1,90.1,372.06V201.39a17.08,17.08,0,0,1,17.07-17.06H329a8.4,8.4,0,0,0,3.46-.77c.25-.15.5-.32.74-.49a8.65,8.65,0,0,0,2.11-1.65c.09-.09.22-.13.3-.23l53.13-65v59.64a8.53,8.53,0,0,0,8.53,8.54h17.07a17.08,17.08,0,0,1,17.06,17.06V372.06Z"/></g><g id="Layer_1-2" data-name="Layer 1"><path d="M174.17,297.46V315H118.65V301.18l24-26.8H119.5V256.82H173v13.83l-24,26.81Z"/><path d="M182.94,248.69a11.64,11.64,0,0,1,0-17.55q4-3.46,10.48-3.46T204,231a10.6,10.6,0,0,1,3.94,8.51,11.73,11.73,0,0,1-3.94,9.09q-3.93,3.57-10.53,3.56T182.94,248.69Zm-1.54,8.13h24V315h-24Z"/><path d="M273.78,262.25q6.54,6.5,6.54,19.57V315h-24V286q0-10-7.13-10a8.33,8.33,0,0,0-6.54,2.82c-1.66,1.88-2.5,4.84-2.5,8.88V315h-24V256.82h22.87v5.75a22.33,22.33,0,0,1,7.87-5.11,27.09,27.09,0,0,1,9.68-1.7Q267.23,255.76,273.78,262.25Z"/><path d="M356.79,256.82v46.59q0,16.59-9.2,24.95t-26.22,8.35a67.87,67.87,0,0,1-16.27-1.87,41.09,41.09,0,0,1-12.87-5.37l8.08-16.38a27.9,27.9,0,0,0,8.62,4.15,34.25,34.25,0,0,0,10,1.6q7.23,0,10.53-3.09t3.3-9v-1.06q-5.43,6.17-16.07,6.17a28.94,28.94,0,0,1-13.88-3.46,26.13,26.13,0,0,1-10.26-9.89,28.28,28.28,0,0,1-3.83-14.73,28,28,0,0,1,3.83-14.68,26.21,26.21,0,0,1,10.26-9.84,28.83,28.83,0,0,1,13.88-3.46q11.93,0,17.24,7.66v-6.6Zm-26.64,33.67a8.78,8.78,0,0,0,2.82-6.75,8.63,8.63,0,0,0-2.82-6.71,10.15,10.15,0,0,0-7.07-2.55A10.29,10.29,0,0,0,315.9,277a9.38,9.38,0,0,0,.05,13.46,10.2,10.2,0,0,0,7.13,2.61A10,10,0,0,0,330.15,290.49Z"/><path d="M368.23,312.19a13.29,13.29,0,0,1-4-9.95,12.94,12.94,0,0,1,4-9.84,15.28,15.28,0,0,1,20.1,0,12.94,12.94,0,0,1,4,9.84,13.29,13.29,0,0,1-4,9.95,15,15,0,0,1-20.1,0Z"/></g></g></svg>